<?xml version="1.0" encoding="UTF-8"?>
<!DOCTYPE svg PUBLIC "-//W3C//DTD SVG 1.1//EN" "http://www.w3.org/Graphics/SVG/1.1/DTD/svg11.dtd">
<!-- Creator: CorelDRAW -->
<svg xmlns="http://www.w3.org/2000/svg" xml:space="preserve" width="3.2311in" height="0.349299in" version="1.1" shape-rendering="geometricPrecision" text-rendering="geometricPrecision" image-rendering="optimizeQuality" fill-rule="evenodd" clip-rule="evenodd"
viewBox="0 0 589.04 63.68"
 xmlns:xlink="http://www.w3.org/1999/xlink"
 xmlns:xodm="http://www.corel.com/coreldraw/odm/2003">
 <g id="Camada_x0020_1">
  <metadata id="CorelCorpID_0Corel-Layer"/>
  <g id="design_e_criacoes">
   <g id="criacoes">
    <path fill="black" fill-rule="nonzero" d="M575.27 32.1c-3.17,-1.04 -5.73,-2.5 -7.7,-4.41 -1.96,-1.91 -2.95,-4.28 -2.95,-7.09 0,-2.77 1.02,-5.15 3.05,-7.14 2.04,-1.99 4.52,-2.98 7.42,-2.98 2.87,0 5.33,0.98 7.38,2.95 1.15,1.08 2.12,2.81 2.9,5.19l-5.24 2c-0.64,-1.66 -1.21,-2.74 -1.74,-3.25 -0.92,-0.87 -2.01,-1.31 -3.3,-1.31 -1.3,0 -2.41,0.44 -3.32,1.32 -0.92,0.88 -1.37,1.95 -1.37,3.22 0,1.26 0.46,2.33 1.37,3.22 1.02,0.98 2.44,1.87 4.24,2.69 3.5,1.1 6.47,2.84 8.91,5.21 2.74,2.62 4.1,5.81 4.1,9.55 0,3.74 -1.36,6.94 -4.09,9.59 -2.73,2.65 -6.01,3.97 -9.85,3.97 -3.85,0 -7.14,-1.33 -9.86,-3.99 -2.17,-2.11 -3.56,-5.04 -4.13,-8.76l5.61 -1.98c0.36,3.2 1.22,5.47 2.6,6.81 1.6,1.56 3.53,2.33 5.78,2.33 2.26,0 4.19,-0.78 5.79,-2.33 1.6,-1.56 2.4,-3.44 2.4,-5.64 0,-2.19 -0.8,-4.07 -2.4,-5.62 -1.53,-1.48 -3.4,-2.67 -5.62,-3.55z"/>
    <polygon fill="black" fill-rule="nonzero" points="556.1,10.96 556.1,16.58 537.8,16.58 537.8,29.85 556.1,29.85 556.1,35.46 537.8,35.46 537.8,48.73 556.1,48.73 556.1,54.37 532.02,54.37 532.02,10.96 "/>
    <path fill="black" fill-rule="nonzero" d="M502.01 1.57c1.15,1.05 1.97,1.57 2.46,1.57l0 0.03c0.55,0 0.84,-0.35 0.84,-1.07 0,-0.46 -0.12,-1.09 -0.36,-1.87l5.19 0c-0.71,3.98 -2.07,6.26 -4.1,6.84 -0.52,0.14 -1.05,0.21 -1.56,0.21 -1.38,0 -2.62,-0.52 -3.73,-1.55 -1.12,-1.03 -1.93,-1.55 -2.45,-1.55l-0.1 0c-0.56,0.04 -0.84,0.39 -0.84,1.06 0,0.45 0.12,1.05 0.39,1.8l-5.23 0c0.72,-3.98 2.11,-6.26 4.16,-6.84 0.52,-0.14 1.05,-0.21 1.56,-0.21 1.36,0 2.62,0.53 3.78,1.57z"/>
    <path fill="black" fill-rule="nonzero" d="M501.31 10.39c6.31,0 11.7,2.17 16.17,6.51 4.47,4.34 6.7,9.58 6.7,15.71 0,6.13 -2.23,11.37 -6.7,15.72 -4.47,4.33 -9.86,6.51 -16.17,6.51 -6.31,0 -11.71,-2.18 -16.18,-6.51 -4.46,-4.34 -6.7,-9.58 -6.7,-15.72 0,-6.13 2.24,-11.36 6.7,-15.71 4.47,-4.34 9.87,-6.51 16.18,-6.51zm0 5.67c-4.71,0 -8.73,1.62 -12.05,4.84 -3.33,3.23 -4.99,7.13 -4.99,11.71 0,4.58 1.66,8.48 5,11.72 3.34,3.24 7.34,4.85 12.04,4.85 4.71,0 8.72,-1.61 12.05,-4.85 3.32,-3.24 4.99,-7.14 4.99,-11.72 0,-4.57 -1.67,-8.47 -4.99,-11.71 -3.33,-3.22 -7.34,-4.84 -12.05,-4.84z"/>
    <path fill="black" fill-rule="nonzero" d="M450.73 54.43c-4.4,-0.8 -8.27,-2.82 -11.62,-6.07 -4.44,-4.33 -6.67,-9.56 -6.67,-15.69 0,-6.11 2.23,-11.34 6.67,-15.68 4.45,-4.34 9.84,-6.51 16.15,-6.51 5.9,0 11.5,2.34 16.79,7.03l-4.34 3.82c-3.99,-3.44 -8.13,-5.16 -12.45,-5.16 -4.67,0 -8.68,1.61 -12,4.83 -3.33,3.22 -4.99,7.11 -4.99,11.67 0,4.57 1.66,8.47 4.99,11.7 3.32,3.22 7.32,4.82 12,4.82 4.32,0 8.47,-1.71 12.45,-5.15l4.34 3.77c-5.29,4.69 -10.89,7.03 -16.79,7.03l-0.53 0 -0.28 0.73c1.37,0.69 2.26,1.49 2.65,2.42 0.08,0.25 0.14,0.49 0.2,0.73 0.06,0.23 0.08,0.46 0.08,0.7 0,0.78 -0.29,1.51 -0.86,2.19 -0.91,1.07 -2.26,1.73 -4.02,1.98 -0.35,0.06 -0.76,0.08 -1.23,0.08 -1.08,0 -2.47,-0.14 -4.17,-0.41l0.98 -3.42c1.06,0.47 1.93,0.7 2.59,0.7 0.11,0 0.22,-0.01 0.32,-0.03 0.57,-0.07 0.94,-0.39 1.11,-0.94 0.06,-0.13 0.09,-0.27 0.09,-0.41 0,-0.07 -0.01,-0.15 -0.03,-0.22 -0.11,-0.51 -0.97,-1.01 -2.58,-1.52l1.14 -3.01z"/>
    <path fill="black" fill-rule="nonzero" d="M411.17 10.96l16.26 43.41 -6.15 0 -5.75 -15.35 -11.84 0 -5.73 15.35 -6.17 0 16.26 -43.41 3.13 0zm2.26 22.44l-3.82 -10.17 -3.8 10.17 7.63 0z"/>
    <polygon fill="black" fill-rule="nonzero" points="385.48,10.96 385.48,54.37 379.7,54.37 379.7,10.96 "/>
    <path fill="black" fill-rule="nonzero" d="M357.37 40.48l-5.28 0 0 13.89 -5.78 0 0 -43.41 12.68 0c3.59,0.47 6.63,1.92 9.11,4.32 2.96,2.9 4.43,6.37 4.43,10.42 0,4.09 -1.48,7.59 -4.43,10.47 -2.05,1.99 -3.61,3.11 -4.7,3.36l9.92 14.85 -7.01 0 -8.94 -13.89zm-5.28 -23.87l0 18.23 5.28 0c2.57,0 4.77,-0.9 6.6,-2.68 1.84,-1.78 2.76,-3.94 2.76,-6.47 0,-2.51 -0.92,-4.66 -2.76,-6.43 -1.83,-1.77 -4.03,-2.66 -6.6,-2.66l-5.28 0z"/>
    <path fill="black" fill-rule="nonzero" d="M334.89 44.04l4.34 3.77c-5.29,4.69 -10.89,7.03 -16.79,7.03 -6.31,0 -11.7,-2.17 -16.15,-6.48 -4.44,-4.33 -6.68,-9.56 -6.68,-15.69 0,-6.11 2.23,-11.34 6.68,-15.68 4.45,-4.34 9.84,-6.51 16.15,-6.51 5.9,0 11.5,2.34 16.79,7.03l-4.34 3.82c-3.99,-3.44 -8.13,-5.16 -12.45,-5.16 -4.67,0 -8.68,1.61 -12,4.83 -3.33,3.22 -4.99,7.11 -4.99,11.67 0,4.57 1.66,8.47 4.99,11.7 3.32,3.22 7.32,4.82 12,4.82 4.32,0 8.47,-1.71 12.45,-5.15z"/>
   </g>
   <polygon fill="black" fill-rule="nonzero" points="272.73,10.96 272.73,16.58 254.43,16.58 254.43,29.85 272.73,29.85 272.73,35.46 254.43,35.46 254.43,48.73 272.73,48.73 272.73,54.37 248.65,54.37 248.65,10.96 "/>
   <g id="designs">
    <path fill="black" fill-rule="nonzero" d="M209.36 32.1c-3.17,-1.04 -5.73,-2.5 -7.69,-4.41 -1.96,-1.91 -2.95,-4.28 -2.95,-7.09 0,-2.77 1.02,-5.15 3.05,-7.14 2.04,-1.99 4.52,-2.98 7.42,-2.98 2.87,0 5.33,0.98 7.38,2.95 1.15,1.08 2.12,2.81 2.9,5.19l-5.24 2c-0.64,-1.66 -1.21,-2.74 -1.74,-3.25 -0.92,-0.87 -2.01,-1.31 -3.3,-1.31 -1.3,0 -2.41,0.44 -3.32,1.32 -0.92,0.88 -1.37,1.95 -1.37,3.22 0,1.26 0.46,2.33 1.37,3.22 1.02,0.98 2.44,1.87 4.24,2.69 3.5,1.1 6.47,2.84 8.92,5.21 2.74,2.62 4.1,5.81 4.1,9.55 0,3.74 -1.36,6.94 -4.09,9.59 -2.73,2.65 -6.01,3.97 -9.85,3.97 -3.85,0 -7.14,-1.33 -9.86,-3.99 -2.17,-2.11 -3.56,-5.04 -4.13,-8.76l5.61 -1.98c0.36,3.2 1.22,5.47 2.6,6.81 1.6,1.56 3.53,2.33 5.78,2.33 2.26,0 4.19,-0.78 5.79,-2.33 1.6,-1.56 2.4,-3.44 2.4,-5.64 0,-2.19 -0.8,-4.07 -2.4,-5.62 -1.53,-1.48 -3.4,-2.67 -5.62,-3.55z"/>
    <polygon fill="black" fill-rule="nonzero" points="159.96,10.96 165.23,10.96 183.67,41.94 183.67,10.96 189.48,10.96 189.48,54.37 184.43,54.37 165.74,23 165.74,54.37 159.96,54.37 "/>
    <path fill="black" fill-rule="nonzero" d="M151.14 48.43c-4.6,4.27 -9.86,6.41 -15.78,6.41 -6.31,0 -11.7,-2.17 -16.15,-6.48 -4.44,-4.33 -6.68,-9.56 -6.68,-15.69 0,-6.11 2.23,-11.34 6.68,-15.68 4.45,-4.34 9.84,-6.51 16.15,-6.51 5.9,0 11.5,2.34 16.79,7.03l-4.34 3.82c-3.99,-3.44 -8.13,-5.16 -12.45,-5.16 -4.67,0 -8.68,1.61 -12,4.83 -3.33,3.22 -4.99,7.11 -4.99,11.67 0,4.57 1.66,8.47 4.99,11.7 3.32,3.22 7.32,4.82 12,4.82 4.02,0 7.35,-1.03 10,-3.09l0 -13.1 5.78 0 0 15.44z"/>
    <polygon fill="black" fill-rule="nonzero" points="104.14,10.96 104.14,54.37 98.36,54.37 98.36,10.96 "/>
    <path fill="black" fill-rule="nonzero" d="M78.29 32.1c-3.17,-1.04 -5.73,-2.5 -7.69,-4.41 -1.96,-1.91 -2.95,-4.28 -2.95,-7.09 0,-2.77 1.02,-5.15 3.05,-7.14 2.04,-1.99 4.52,-2.98 7.42,-2.98 2.87,0 5.33,0.98 7.38,2.95 1.15,1.08 2.12,2.81 2.9,5.19l-5.24 2c-0.64,-1.66 -1.21,-2.74 -1.73,-3.25 -0.92,-0.87 -2.01,-1.31 -3.3,-1.31 -1.3,0 -2.41,0.44 -3.32,1.32 -0.91,0.88 -1.37,1.95 -1.37,3.22 0,1.26 0.46,2.33 1.37,3.22 1.02,0.98 2.44,1.87 4.24,2.69 3.5,1.1 6.47,2.84 8.92,5.21 2.74,2.62 4.1,5.81 4.1,9.55 0,3.74 -1.36,6.94 -4.09,9.59 -2.73,2.65 -6.01,3.97 -9.85,3.97 -3.85,0 -7.14,-1.33 -9.86,-3.99 -2.17,-2.11 -3.56,-5.04 -4.13,-8.76l5.61 -1.98c0.36,3.2 1.22,5.47 2.6,6.81 1.6,1.56 3.53,2.33 5.78,2.33 2.26,0 4.19,-0.78 5.79,-2.33 1.6,-1.56 2.4,-3.44 2.4,-5.64 0,-2.19 -0.8,-4.07 -2.4,-5.62 -1.53,-1.48 -3.4,-2.67 -5.62,-3.55z"/>
    <polygon fill="black" fill-rule="nonzero" points="59.12,10.96 59.12,16.58 40.82,16.58 40.82,29.85 59.12,29.85 59.12,35.46 40.82,35.46 40.82,48.73 59.12,48.73 59.12,54.37 35.04,54.37 35.04,10.96 "/>
    <path fill="black" fill-rule="nonzero" d="M4.24 10.96c7.27,0.04 12.92,2.04 16.98,6 4.45,4.36 6.67,9.59 6.67,15.71 0,6.13 -2.22,11.37 -6.67,15.72 -4.06,3.95 -9.72,5.95 -16.98,5.99l-4.24 0 0 -43.41 4.24 0zm1.54 5.73l0 31.99c4.6,0 8.37,-1.44 11.31,-4.32 3.32,-3.22 4.98,-7.12 4.98,-11.7 0,-4.56 -1.66,-8.45 -4.98,-11.69 -2.94,-2.86 -6.71,-4.29 -11.31,-4.29z"/>
   </g>
  </g>
 </g>
</svg>
