<?xml version="1.0" encoding="UTF-8"?>
<!DOCTYPE svg PUBLIC "-//W3C//DTD SVG 1.1//EN" "http://www.w3.org/Graphics/SVG/1.1/DTD/svg11.dtd">
<!-- Creator: CorelDRAW -->
<svg xmlns="http://www.w3.org/2000/svg" xml:space="preserve" width="3.24753in" height="1.49186in" version="1.1" shape-rendering="geometricPrecision" text-rendering="geometricPrecision" image-rendering="optimizeQuality" fill-rule="evenodd" clip-rule="evenodd"
viewBox="0 0 276.7 127.11"
 xmlns:xlink="http://www.w3.org/1999/xlink"
 xmlns:xodm="http://www.corel.com/coreldraw/odm/2003">
 <g id="Camada_x0020_1">
  <metadata id="CorelCorpID_0Corel-Layer"/>
  <g id="WLF">
   <polygon id="W" fill="none" fill-rule="nonzero" stroke="white" stroke-width="2.37" stroke-miterlimit="2.61313" points="1.18,1.18 26.2,1.18 26.2,63.05 51.23,49.51 76.25,63.05 76.25,1.18 101.26,1.18 101.26,110.69 51.23,82.16 1.18,110.69 "/>
   <polygon id="L" fill="none" fill-rule="nonzero" stroke="white" stroke-width="2.37" stroke-miterlimit="2.61313" points="118.84,20.47 110.49,20.47 110.49,1.18 143.86,1.18 143.86,84.59 167.44,84.59 192.46,109.6 192.46,109.6 118.84,109.6 "/>
   <polygon id="F" fill="none" fill-rule="nonzero" stroke="white" stroke-width="2.37" stroke-miterlimit="2.61313" points="194.48,20.47 186.38,20.47 170.63,1.18 275.52,1.18 275.52,28.54 258.38,28.54 258.38,20.47 218.8,20.47 218.8,42.89 243.11,42.89 243.11,67.91 218.8,67.91 218.8,126.29 194.48,101.26 "/>
  </g>
 </g>
</svg>
